<?xml version="1.0" encoding="utf-8"?>
<!-- Generator: Adobe Illustrator 26.0.2, SVG Export Plug-In . SVG Version: 6.00 Build 0)  -->
<svg version="1.1" id="Livello_1" xmlns="http://www.w3.org/2000/svg" xmlns:xlink="http://www.w3.org/1999/xlink" x="0px" y="0px"
	 viewBox="0 0 1080 1080" style="enable-background:new 0 0 1080 1080;" xml:space="preserve">
<style type="text/css">
	.st0{fill:#FFFFFF;}
	.st1{fill:#AB3863;}
	.st2{fill:#405BAC;}
	.st3{fill:#EBB062;}
	.st4{fill:url(#SVGID_1_);}
	.st5{fill:#A17FCF;}
	.st6{fill:url(#SVGID_00000168076223560468256450000014123020331788852654_);}
	.st7{fill:#CCB1E7;}
</style>
<g>
	<g>
		<path d="M741.8,338.3c-53.9-53.9-125.6-83.6-201.8-83.6s-147.9,29.7-201.7,83.6c-53.9,53.9-83.6,125.5-83.6,201.7
			s29.7,147.9,83.6,201.8c53.9,53.9,125.5,83.6,201.7,83.6c105,0,201.2-57.4,251.2-149.9c11.9-22,20.8-45.5,26.6-69.8l0.1-0.2
			c2.9-12.2,4.9-24.8,6.2-37.4c0.3-3,0.5-6,0.7-9l0-0.1c0.4-6.3,0.6-12.6,0.6-18.9C825.3,463.8,795.6,392.1,741.8,338.3z
			 M820.7,558.7L820.7,558.7c-0.2,3-0.4,6-0.7,8.9c-1.2,12.6-3.3,24.9-6.1,37l0,0.1c-5.7,24.3-14.6,47.4-26.2,68.8
			C740.1,761.5,647,821.3,540,821.3c-155.4,0-281.3-125.9-281.3-281.3s126-281.3,281.3-281.3S821.3,384.6,821.3,540
			C821.3,546.3,821.1,552.5,820.7,558.7z"/>
	</g>
	<g>
		<path class="st0" d="M821.3,540c0,6.3-0.2,12.5-0.6,18.7v0c-0.2,3-0.4,5.9-0.7,8.9c-1.2,12.6-3.3,24.9-6.1,37l0,0.1
			c-5.7,24.3-14.6,47.4-26.2,68.8C740.1,761.5,647,821.3,540,821.3c-155.4,0-281.3-125.9-281.3-281.3s126-281.3,281.3-281.3
			S821.3,384.6,821.3,540z"/>
	</g>
	<g>
		<path class="st0" d="M821.3,540c0,6.3-0.2,12.5-0.6,18.7v0c-0.2,3-0.4,5.9-0.7,8.9c-1.2,12.6-3.3,24.9-6.1,37l0,0.1
			c-5.7,24.3-14.6,47.4-26.2,68.8C740.1,761.5,647,821.3,540,821.3c-155.4,0-281.3-125.9-281.3-281.3s126-281.3,281.3-281.3
			S821.3,384.6,821.3,540z"/>
	</g>
	<g>
		<g>
			<path d="M727.6,352.4c-50.1-50.1-116.8-77.7-187.6-77.7s-137.5,27.6-187.6,77.7c-50.1,50.1-77.7,116.7-77.7,187.6
				s27.6,137.5,77.7,187.6c50.1,50.1,116.7,77.7,187.6,77.7c97.6,0,187.2-53.4,233.6-139.4c11-20.2,19.2-41.8,24.5-64.2l0.2-0.7
				c2.7-11.4,4.6-23.2,5.8-34.9c0.2-2.5,0.5-5.1,0.6-7.7l0-0.7c0.4-5.9,0.6-11.8,0.6-17.7C805.3,469.1,777.7,402.5,727.6,352.4z
				 M800.7,557.4l0,0.7c-0.2,2.6-0.4,5.1-0.6,7.6c-1.1,11.6-3,23.1-5.7,34.4l-0.2,0.7l0,0.1c-5.2,22-13.3,43.3-24.2,63.2
				C724.3,748.7,636.2,801.3,540,801.3c-69.8,0-135.4-27.2-184.8-76.5c-49.4-49.4-76.5-115-76.5-184.8s27.2-135.4,76.5-184.8
				c49.4-49.4,115-76.5,184.8-76.5c69.8,0,135.4,27.2,184.8,76.5s76.5,115,76.5,184.8C801.3,545.8,801.1,551.6,800.7,557.4z"/>
		</g>
	</g>
	<g>
		<path class="st0" d="M801.3,540c0,5.8-0.2,11.6-0.6,17.4l0,0.7c-0.2,2.6-0.4,5.1-0.6,7.6c-1.1,11.6-3,23.1-5.7,34.4l-0.2,0.7
			l0,0.1c-5.2,22-13.3,43.3-24.2,63.2C724.3,748.7,636.2,801.3,540,801.3c-69.8,0-135.4-27.2-184.8-76.5
			c-49.4-49.4-76.5-115-76.5-184.8s27.2-135.4,76.5-184.8c49.4-49.4,115-76.5,184.8-76.5c69.8,0,135.4,27.2,184.8,76.5
			S801.3,470.2,801.3,540z"/>
	</g>
	<g>
		<path class="st0" d="M801.3,540c0,5.8-0.2,11.6-0.6,17.4l0,0.7c-0.2,2.6-0.4,5.1-0.6,7.6c-1.1,11.6-3,23.1-5.7,34.4l-0.2,0.7
			l0,0.1c-5.2,22-13.3,43.3-24.2,63.2C724.3,748.7,636.2,801.3,540,801.3c-69.8,0-135.4-27.2-184.8-76.5
			c-49.4-49.4-76.5-115-76.5-184.8s27.2-135.4,76.5-184.8c49.4-49.4,115-76.5,184.8-76.5c69.8,0,135.4,27.2,184.8,76.5
			S801.3,470.2,801.3,540z"/>
	</g>
	<path class="st1" d="M782.4,637.9c-13,32.1-32.4,61.6-57.6,86.8c-49.4,49.4-115,76.5-184.8,76.5c-69.8,0-135.4-27.2-184.8-76.5
		c-22.5-22.5-40.3-48.3-53.1-76.4c37.9-11.8,81.6-22.5,130.5-29.2c95.2-13.2,170.9-3.9,262.4,6.6
		C726.8,629.4,756.1,633.6,782.4,637.9z"/>
	<path class="st2" d="M799.2,506.1c-11-3-22.6-5.9-34.7-8.6c-114.2-25.4-205-16.3-230.5-13.3c-20.4,2.4-111.4,14.1-218.5,64.8
		c-12.6,6-24.4,12-35.5,18c-0.9-8.9-1.4-17.9-1.4-27c0-69.8,27.2-135.4,76.5-184.8c49.4-49.4,115-76.5,184.8-76.5
		c69.8,0,135.4,27.2,184.8,76.5C766.1,396.5,791.8,449.2,799.2,506.1z"/>
	<g>
		<g>
			<path class="st0" d="M370.3,655.2v35.5h-8.6v-35.5H370.3z M373.3,690.8h-7.9l0-6.6h7.8c1.6,0,3-0.4,4.1-1.2
				c1.1-0.8,2-1.9,2.6-3.5c0.6-1.6,0.9-3.5,0.9-5.7v-1.5c0-1.7-0.2-3.2-0.5-4.5c-0.3-1.3-0.8-2.4-1.5-3.2c-0.7-0.9-1.5-1.5-2.4-2
				c-1-0.4-2.1-0.7-3.3-0.7h-7.9v-6.6h7.9c2.4,0,4.6,0.4,6.6,1.2c2,0.8,3.8,2,5.2,3.5c1.5,1.5,2.6,3.3,3.4,5.4s1.2,4.4,1.2,6.9v1.5
				c0,2.5-0.4,4.8-1.2,6.9s-1.9,3.9-3.4,5.4s-3.2,2.7-5.2,3.5C377.8,690.4,375.6,690.8,373.3,690.8z"/>
			<path class="st0" d="M407.9,662.7l-8.7,28.1H390l13.1-35.5h5.8L407.9,662.7z M414.7,677.5v6.6h-18.2v-6.6H414.7z M415,690.8
				l-8.7-28.1l-1.1-7.5h5.9l13.1,35.5H415z"/>
			<path class="st0" d="M425.6,655.2h14c2.7,0,5.1,0.4,7.1,1.2c2,0.8,3.6,2,4.7,3.6s1.6,3.6,1.6,5.9c0,2-0.3,3.7-1,5.1
				s-1.5,2.5-2.6,3.4c-1.1,0.9-2.4,1.6-3.9,2.2l-2.8,1.6H431l0-6.6h8.7c1.1,0,2-0.2,2.7-0.6c0.7-0.4,1.3-0.9,1.6-1.7
				c0.4-0.7,0.5-1.6,0.5-2.6c0-1-0.2-1.9-0.6-2.6c-0.4-0.7-0.9-1.3-1.6-1.7c-0.7-0.4-1.6-0.6-2.7-0.6h-5.4v28.9h-8.6V655.2z
				 M445.1,690.8l-7.9-15.7l9.1,0l8,15.4v0.4H445.1z"/>
			<path class="st0" d="M466.1,655.2v35.5h-8.5v-35.5H466.1z"/>
			<path class="st0" d="M500.9,672.3v1.4c0,2.7-0.4,5.2-1.1,7.3c-0.8,2.2-1.8,4-3.2,5.5c-1.4,1.5-3,2.7-4.9,3.5
				c-1.9,0.8-4,1.2-6.2,1.2c-2.3,0-4.4-0.4-6.3-1.2c-1.9-0.8-3.5-2-4.9-3.5c-1.4-1.5-2.5-3.4-3.2-5.5c-0.8-2.2-1.1-4.6-1.1-7.3v-1.4
				c0-2.7,0.4-5.2,1.1-7.3s1.8-4,3.2-5.5c1.4-1.5,3-2.7,4.9-3.5c1.9-0.8,4-1.2,6.3-1.2c2.3,0,4.4,0.4,6.3,1.2c1.9,0.8,3.5,2,4.9,3.5
				c1.4,1.5,2.5,3.4,3.2,5.5C500.5,667.1,500.9,669.6,500.9,672.3z M492.2,673.7v-1.5c0-1.8-0.2-3.3-0.5-4.7
				c-0.3-1.3-0.7-2.5-1.3-3.4s-1.3-1.6-2.2-2.1s-1.8-0.7-2.9-0.7c-1.1,0-2.1,0.2-3,0.7c-0.8,0.5-1.6,1.2-2.1,2.1
				c-0.6,0.9-1,2-1.3,3.4c-0.3,1.3-0.4,2.9-0.4,4.7v1.5c0,1.7,0.1,3.3,0.4,4.6c0.3,1.3,0.7,2.5,1.3,3.4c0.6,0.9,1.3,1.6,2.1,2.1
				s1.9,0.7,3,0.7c1.1,0,2.1-0.2,2.9-0.7c0.8-0.5,1.6-1.2,2.1-2.1c0.6-0.9,1-2.1,1.3-3.4C492.1,677,492.2,675.5,492.2,673.7z"/>
			<path class="st0" d="M515.3,655.2h14c2.7,0,5.1,0.4,7.1,1.2c2,0.8,3.6,2,4.7,3.6s1.6,3.6,1.6,5.9c0,2-0.3,3.7-1,5.1
				s-1.5,2.5-2.6,3.4c-1.1,0.9-2.4,1.6-3.9,2.2l-2.8,1.6h-11.7l0-6.6h8.7c1.1,0,2-0.2,2.7-0.6c0.7-0.4,1.3-0.9,1.6-1.7
				c0.4-0.7,0.5-1.6,0.5-2.6c0-1-0.2-1.9-0.6-2.6c-0.4-0.7-0.9-1.3-1.6-1.7c-0.7-0.4-1.6-0.6-2.7-0.6h-5.4v28.9h-8.6V655.2z
				 M534.8,690.8l-7.9-15.7l9.1,0l8,15.4v0.4H534.8z"/>
			<path class="st0" d="M576.8,672.3v1.4c0,2.7-0.4,5.2-1.1,7.3c-0.8,2.2-1.8,4-3.2,5.5c-1.4,1.5-3,2.7-4.9,3.5
				c-1.9,0.8-4,1.2-6.2,1.2c-2.3,0-4.4-0.4-6.3-1.2c-1.9-0.8-3.5-2-4.9-3.5c-1.4-1.5-2.5-3.4-3.2-5.5c-0.8-2.2-1.1-4.6-1.1-7.3v-1.4
				c0-2.7,0.4-5.2,1.1-7.3s1.8-4,3.2-5.5c1.4-1.5,3-2.7,4.9-3.5c1.9-0.8,4-1.2,6.3-1.2c2.3,0,4.4,0.4,6.3,1.2c1.9,0.8,3.5,2,4.9,3.5
				c1.4,1.5,2.5,3.4,3.2,5.5C576.4,667.1,576.8,669.6,576.8,672.3z M568.1,673.7v-1.5c0-1.8-0.2-3.3-0.5-4.7
				c-0.3-1.3-0.7-2.5-1.3-3.4s-1.3-1.6-2.2-2.1s-1.8-0.7-2.9-0.7c-1.1,0-2.1,0.2-3,0.7c-0.8,0.5-1.6,1.2-2.1,2.1
				c-0.6,0.9-1,2-1.3,3.4c-0.3,1.3-0.4,2.9-0.4,4.7v1.5c0,1.7,0.1,3.3,0.4,4.6c0.3,1.3,0.7,2.5,1.3,3.4s1.3,1.6,2.1,2.1
				s1.9,0.7,3,0.7c1.1,0,2.1-0.2,2.9-0.7c0.8-0.5,1.6-1.2,2.1-2.1c0.6-0.9,1-2.1,1.3-3.4C567.9,677,568.1,675.5,568.1,673.7z"/>
			<path class="st0" d="M580,655.2h7.2l1.3,27.2v8.3H580V655.2z M584.2,655.2h7l7.9,24.7l7.9-24.7h7l-12.1,35.5h-5.7L584.2,655.2z
				 M611.1,655.2h7.2v35.5h-8.6v-8.3L611.1,655.2z"/>
			<path class="st0" d="M637.6,662.7l-8.7,28.1h-9.2l13.1-35.5h5.8L637.6,662.7z M644.4,677.5v6.6h-18.2v-6.6H644.4z M644.8,690.8
				l-8.7-28.1l-1.1-7.5h5.9l13.1,35.5H644.8z"/>
			<path class="st0" d="M685,655.2v35.5h-8.5l-12.6-22.1v22.1h-8.6v-35.5h8.6l12.6,22.1v-22.1H685z"/>
			<path class="st0" d="M719.3,672.3v1.4c0,2.7-0.4,5.2-1.1,7.3c-0.8,2.2-1.8,4-3.2,5.5c-1.4,1.5-3,2.7-4.9,3.5
				c-1.9,0.8-4,1.2-6.2,1.2c-2.3,0-4.4-0.4-6.3-1.2c-1.9-0.8-3.5-2-4.9-3.5c-1.4-1.5-2.5-3.4-3.2-5.5c-0.8-2.2-1.1-4.6-1.1-7.3v-1.4
				c0-2.7,0.4-5.2,1.1-7.3s1.8-4,3.2-5.5c1.4-1.5,3-2.7,4.9-3.5c1.9-0.8,4-1.2,6.3-1.2c2.3,0,4.4,0.4,6.3,1.2c1.9,0.8,3.5,2,4.9,3.5
				c1.4,1.5,2.5,3.4,3.2,5.5C718.9,667.1,719.3,669.6,719.3,672.3z M710.6,673.7v-1.5c0-1.8-0.2-3.3-0.5-4.7
				c-0.3-1.3-0.7-2.5-1.3-3.4s-1.3-1.6-2.2-2.1s-1.8-0.7-2.9-0.7c-1.1,0-2.1,0.2-3,0.7c-0.8,0.5-1.6,1.2-2.1,2.1
				c-0.6,0.9-1,2-1.3,3.4c-0.3,1.3-0.4,2.9-0.4,4.7v1.5c0,1.7,0.1,3.3,0.4,4.6c0.3,1.3,0.7,2.5,1.3,3.4s1.3,1.6,2.1,2.1
				s1.9,0.7,3,0.7c1.1,0,2.1-0.2,2.9-0.7c0.8-0.5,1.6-1.2,2.1-2.1c0.6-0.9,1-2.1,1.3-3.4C710.4,677,710.6,675.5,710.6,673.7z"/>
		</g>
	</g>
	<g>
		<g>
			<path class="st3" d="M477.8,722.1c0-0.4-0.1-0.7-0.2-1.1c-0.1-0.3-0.3-0.6-0.6-0.9s-0.7-0.5-1.3-0.8c-0.6-0.3-1.3-0.6-2.3-0.9
				c-1.1-0.4-2.1-0.8-3.2-1.2c-1-0.5-1.9-1-2.7-1.6c-0.8-0.6-1.4-1.4-1.9-2.2c-0.5-0.8-0.7-1.8-0.7-2.9c0-1.1,0.2-2,0.7-2.9
				s1.1-1.6,2-2.2s1.9-1.1,3-1.4c1.2-0.3,2.4-0.5,3.8-0.5c1.8,0,3.4,0.3,4.8,0.9c1.4,0.6,2.5,1.5,3.3,2.7c0.8,1.2,1.2,2.5,1.2,4.1
				h-6c0-0.6-0.1-1.2-0.4-1.7c-0.3-0.5-0.6-0.9-1.2-1.1s-1.2-0.4-1.9-0.4c-0.8,0-1.4,0.1-1.9,0.3c-0.5,0.2-0.9,0.5-1.2,0.9
				c-0.3,0.4-0.4,0.8-0.4,1.3c0,0.4,0.1,0.7,0.3,1c0.2,0.3,0.5,0.6,0.9,0.8c0.4,0.3,0.9,0.5,1.4,0.8c0.6,0.2,1.2,0.5,1.9,0.7
				c1.3,0.4,2.5,0.9,3.5,1.4s1.9,1.1,2.6,1.8c0.7,0.7,1.3,1.4,1.6,2.2s0.6,1.8,0.6,2.8c0,1.1-0.2,2.1-0.6,3
				c-0.4,0.9-1.1,1.6-1.9,2.2c-0.8,0.6-1.8,1.1-2.9,1.4s-2.4,0.5-3.8,0.5c-1.3,0-2.5-0.2-3.8-0.5c-1.2-0.3-2.4-0.8-3.4-1.5
				c-1-0.7-1.8-1.5-2.4-2.6c-0.6-1.1-0.9-2.3-0.9-3.8h6c0,0.7,0.1,1.3,0.3,1.8c0.2,0.5,0.5,0.9,0.9,1.2s0.8,0.5,1.4,0.6
				s1.2,0.2,1.9,0.2c0.8,0,1.4-0.1,1.8-0.3c0.5-0.2,0.8-0.5,1-0.9C477.7,722.9,477.8,722.5,477.8,722.1z"/>
			<path class="st3" d="M492.4,703.8v24.9h-6v-24.9H492.4z"/>
			<path class="st3" d="M516.5,703.8v24.9h-6l-8.8-15.5v15.5h-6v-24.9h6l8.8,15.5v-15.5H516.5z"/>
			<path class="st3" d="M525.4,703.8v24.9h-6v-24.9H525.4z M527.5,728.7H522l0-4.6h5.5c1.1,0,2.1-0.3,2.9-0.8s1.4-1.4,1.8-2.5
				s0.6-2.4,0.6-4v-1.1c0-1.2-0.1-2.2-0.4-3.2c-0.2-0.9-0.6-1.7-1-2.3c-0.5-0.6-1-1.1-1.7-1.4s-1.5-0.5-2.3-0.5h-5.5v-4.6h5.5
				c1.7,0,3.2,0.3,4.6,0.9c1.4,0.6,2.6,1.4,3.7,2.5c1,1.1,1.8,2.3,2.4,3.8c0.6,1.5,0.8,3.1,0.8,4.8v1c0,1.8-0.3,3.4-0.8,4.8
				c-0.6,1.5-1.4,2.7-2.4,3.8s-2.2,1.9-3.6,2.5C530.7,728.4,529.2,728.7,527.5,728.7z"/>
			<path class="st3" d="M551.7,709l-6.1,19.7h-6.4l9.1-24.9h4.1L551.7,709z M556.5,719.4v4.6h-12.8v-4.6H556.5z M556.8,728.7
				l-6.1-19.7l-0.8-5.2h4.1l9.2,24.9H556.8z"/>
			<path class="st3" d="M578.3,720.2h6c-0.1,1.7-0.5,3.3-1.4,4.6c-0.9,1.3-2,2.4-3.5,3.1c-1.5,0.7-3.3,1.1-5.3,1.1
				c-1.7,0-3.1-0.3-4.5-0.8c-1.3-0.6-2.4-1.4-3.3-2.4s-1.6-2.3-2.1-3.8c-0.5-1.5-0.7-3.2-0.7-5v-1.4c0-1.9,0.2-3.6,0.7-5
				s1.2-2.8,2.1-3.8c0.9-1.1,2-1.9,3.3-2.4s2.7-0.8,4.3-0.8c2.2,0,4,0.4,5.5,1.2c1.5,0.8,2.6,1.8,3.5,3.2c0.8,1.4,1.3,2.9,1.5,4.6
				h-6c0-0.9-0.2-1.7-0.5-2.3c-0.3-0.6-0.8-1.1-1.4-1.4c-0.6-0.3-1.5-0.5-2.5-0.5c-0.7,0-1.4,0.1-1.9,0.4s-1,0.7-1.4,1.3
				s-0.6,1.4-0.8,2.3c-0.2,0.9-0.3,2.1-0.3,3.4v1.4c0,1.3,0.1,2.4,0.2,3.4c0.2,0.9,0.4,1.7,0.8,2.3c0.4,0.6,0.8,1,1.4,1.3
				s1.3,0.4,2.1,0.4c0.9,0,1.7-0.1,2.3-0.4c0.6-0.3,1.1-0.7,1.5-1.3C578.1,722,578.3,721.2,578.3,720.2z"/>
			<path class="st3" d="M607.3,715.7v1c0,1.9-0.3,3.6-0.8,5.1s-1.3,2.8-2.2,3.9c-1,1.1-2.1,1.9-3.4,2.4c-1.3,0.6-2.8,0.8-4.4,0.8
				c-1.6,0-3.1-0.3-4.4-0.8c-1.3-0.6-2.5-1.4-3.5-2.4s-1.7-2.4-2.3-3.9s-0.8-3.2-0.8-5.1v-1c0-1.9,0.3-3.6,0.8-5.1
				c0.5-1.5,1.3-2.8,2.2-3.9s2.1-1.9,3.4-2.4c1.3-0.6,2.8-0.8,4.4-0.8c1.6,0,3.1,0.3,4.4,0.8c1.3,0.6,2.5,1.4,3.4,2.4
				c1,1.1,1.7,2.4,2.3,3.9C607,712.1,607.3,713.8,607.3,715.7z M601.2,716.7v-1c0-1.2-0.1-2.3-0.3-3.3c-0.2-0.9-0.5-1.7-0.9-2.4
				s-0.9-1.1-1.5-1.4c-0.6-0.3-1.3-0.5-2-0.5c-0.8,0-1.5,0.2-2.1,0.5c-0.6,0.3-1.1,0.8-1.5,1.4c-0.4,0.6-0.7,1.4-0.9,2.4
				c-0.2,0.9-0.3,2-0.3,3.3v1c0,1.2,0.1,2.3,0.3,3.2c0.2,0.9,0.5,1.7,0.9,2.4s0.9,1.1,1.5,1.5c0.6,0.3,1.3,0.5,2.1,0.5
				c0.8,0,1.4-0.2,2-0.5c0.6-0.3,1.1-0.8,1.5-1.5c0.4-0.6,0.7-1.4,0.9-2.4C601.1,719,601.2,718,601.2,716.7z"/>
		</g>
	</g>
	<g>
		<g>
			<path class="st0" d="M463.8,329.7h-6.2V325h6.2c0.8,0,1.5-0.1,2.1-0.4c0.5-0.3,0.9-0.7,1.2-1.2s0.4-1.1,0.4-1.7
				c0-0.7-0.1-1.3-0.4-1.9s-0.6-1.1-1.2-1.4c-0.5-0.4-1.2-0.5-2.1-0.5h-3.9v20.3h-6v-24.9h9.9c2,0,3.7,0.4,5.2,1.1
				c1.4,0.7,2.5,1.7,3.3,3c0.8,1.3,1.2,2.7,1.2,4.3c0,1.6-0.4,3-1.2,4.2s-1.9,2.1-3.3,2.8C467.5,329.3,465.8,329.7,463.8,329.7z"/>
			<path class="st0" d="M475.8,313.2h9.8c1.9,0,3.6,0.3,5,0.9c1.4,0.6,2.5,1.4,3.3,2.5c0.8,1.1,1.2,2.5,1.2,4.1
				c0,1.4-0.2,2.6-0.7,3.6s-1.1,1.7-1.9,2.4c-0.8,0.6-1.7,1.1-2.8,1.5l-2,1.1h-8.2l0-4.6h6.1c0.8,0,1.4-0.1,1.9-0.4
				c0.5-0.3,0.9-0.7,1.1-1.2c0.3-0.5,0.4-1.1,0.4-1.8c0-0.7-0.1-1.3-0.4-1.8c-0.3-0.5-0.6-0.9-1.2-1.2s-1.1-0.4-1.9-0.4h-3.8v20.3
				h-6V313.2z M489.4,338.1l-5.5-11l6.4,0l5.6,10.8v0.3H489.4z"/>
			<path class="st0" d="M518.8,325.2v1c0,1.9-0.3,3.6-0.8,5.1c-0.5,1.5-1.3,2.8-2.2,3.9c-1,1.1-2.1,1.9-3.4,2.4
				c-1.3,0.6-2.8,0.8-4.4,0.8c-1.6,0-3.1-0.3-4.4-0.8c-1.3-0.6-2.5-1.4-3.5-2.4c-1-1.1-1.7-2.4-2.3-3.9c-0.5-1.5-0.8-3.2-0.8-5.1v-1
				c0-1.9,0.3-3.6,0.8-5.1c0.5-1.5,1.3-2.8,2.2-3.9s2.1-1.9,3.4-2.4c1.3-0.6,2.8-0.8,4.4-0.8c1.6,0,3.1,0.3,4.4,0.8
				c1.3,0.6,2.5,1.4,3.4,2.4s1.7,2.4,2.3,3.9C518.5,321.6,518.8,323.3,518.8,325.2z M512.7,326.2v-1c0-1.2-0.1-2.3-0.3-3.3
				c-0.2-0.9-0.5-1.7-0.9-2.4c-0.4-0.6-0.9-1.1-1.5-1.4c-0.6-0.3-1.3-0.5-2-0.5c-0.8,0-1.5,0.2-2.1,0.5c-0.6,0.3-1.1,0.8-1.5,1.4
				c-0.4,0.6-0.7,1.4-0.9,2.4c-0.2,0.9-0.3,2-0.3,3.3v1c0,1.2,0.1,2.3,0.3,3.2c0.2,0.9,0.5,1.7,0.9,2.4s0.9,1.1,1.5,1.5
				c0.6,0.3,1.3,0.5,2.1,0.5c0.8,0,1.4-0.2,2-0.5c0.6-0.3,1.1-0.8,1.5-1.5s0.7-1.4,0.9-2.4C512.6,328.5,512.7,327.4,512.7,326.2z"/>
			<path class="st0" d="M541.4,324.8V335c-0.4,0.5-1.1,1-1.9,1.5c-0.9,0.5-2,1-3.3,1.4s-2.9,0.6-4.7,0.6c-1.7,0-3.2-0.3-4.5-0.8
				c-1.3-0.5-2.5-1.3-3.5-2.3s-1.7-2.3-2.2-3.8s-0.8-3.2-0.8-5.2V325c0-1.9,0.3-3.7,0.8-5.2s1.3-2.8,2.2-3.8c1-1,2.1-1.8,3.4-2.3
				c1.3-0.5,2.7-0.8,4.3-0.8c2.3,0,4.2,0.4,5.6,1.1s2.5,1.7,3.3,3c0.7,1.3,1.2,2.7,1.4,4.4h-5.8c-0.1-0.8-0.3-1.5-0.6-2.1
				s-0.8-1-1.3-1.3c-0.6-0.3-1.3-0.5-2.3-0.5c-0.7,0-1.4,0.2-2,0.5s-1.1,0.8-1.5,1.4c-0.4,0.6-0.7,1.4-0.9,2.3
				c-0.2,0.9-0.3,2-0.3,3.3v1.4c0,1.2,0.1,2.3,0.3,3.3c0.2,0.9,0.5,1.7,1,2.3c0.4,0.6,1,1.1,1.6,1.4c0.7,0.3,1.5,0.5,2.4,0.5
				c0.6,0,1.2-0.1,1.6-0.2s0.8-0.2,1.1-0.4s0.5-0.3,0.7-0.5v-3.9h-4.2v-4.1H541.4z"/>
			<path class="st0" d="M550,313.2v24.9h-6v-24.9H550z M561.2,313.2v4.6h-13.3v-4.6H561.2z M559.4,323.1v4.5h-11.6v-4.5H559.4z
				 M561.1,333.5v4.6h-13.3v-4.6H561.1z"/>
			<path class="st0" d="M582.2,313.2v4.6h-20.8v-4.6H582.2z M574.8,313.2v24.9h-6v-24.9H574.8z"/>
			<path class="st0" d="M603.4,313.2v4.6h-20.8v-4.6H603.4z M596,313.2v24.9h-6v-24.9H596z"/>
			<path class="st0" d="M626.2,325.2v1c0,1.9-0.3,3.6-0.8,5.1c-0.5,1.5-1.3,2.8-2.2,3.9c-1,1.1-2.1,1.9-3.4,2.4
				c-1.3,0.6-2.8,0.8-4.4,0.8c-1.6,0-3.1-0.3-4.4-0.8c-1.3-0.6-2.5-1.4-3.5-2.4c-1-1.1-1.7-2.4-2.3-3.9c-0.5-1.5-0.8-3.2-0.8-5.1v-1
				c0-1.9,0.3-3.6,0.8-5.1c0.5-1.5,1.3-2.8,2.2-3.9s2.1-1.9,3.4-2.4c1.3-0.6,2.8-0.8,4.4-0.8c1.6,0,3.1,0.3,4.4,0.8
				c1.3,0.6,2.5,1.4,3.4,2.4s1.7,2.4,2.3,3.9C625.9,321.6,626.2,323.3,626.2,325.2z M620.1,326.2v-1c0-1.2-0.1-2.3-0.3-3.3
				c-0.2-0.9-0.5-1.7-0.9-2.4c-0.4-0.6-0.9-1.1-1.5-1.4c-0.6-0.3-1.3-0.5-2-0.5c-0.8,0-1.5,0.2-2.1,0.5c-0.6,0.3-1.1,0.8-1.5,1.4
				c-0.4,0.6-0.7,1.4-0.9,2.4c-0.2,0.9-0.3,2-0.3,3.3v1c0,1.2,0.1,2.3,0.3,3.2c0.2,0.9,0.5,1.7,0.9,2.4s0.9,1.1,1.5,1.5
				c0.6,0.3,1.3,0.5,2.1,0.5c0.8,0,1.4-0.2,2-0.5c0.6-0.3,1.1-0.8,1.5-1.5s0.7-1.4,0.9-2.4C620,328.5,620.1,327.4,620.1,326.2z"/>
		</g>
	</g>
	<g>
		<g>
			<path class="st0" d="M394.3,389.7c0-0.7-0.1-1.4-0.3-2c-0.2-0.6-0.6-1.1-1.2-1.6s-1.4-1-2.5-1.5s-2.5-1.1-4.2-1.6
				c-2-0.7-4-1.4-5.9-2.3c-1.9-0.9-3.6-1.9-5-3c-1.5-1.2-2.7-2.5-3.5-4.1c-0.9-1.6-1.3-3.4-1.3-5.4c0-2,0.4-3.8,1.3-5.4
				s2.1-3,3.7-4.1c1.6-1.1,3.5-2,5.6-2.6c2.2-0.6,4.5-0.9,7.1-0.9c3.4,0,6.4,0.6,9,1.8c2.6,1.2,4.6,2.8,6.1,5
				c1.5,2.1,2.2,4.7,2.2,7.6h-11.1c0-1.2-0.2-2.2-0.7-3.1c-0.5-0.9-1.2-1.6-2.1-2.1s-2.1-0.8-3.6-0.8c-1.4,0-2.6,0.2-3.5,0.6
				c-1,0.4-1.7,1-2.2,1.7c-0.5,0.7-0.7,1.5-0.7,2.3c0,0.7,0.2,1.3,0.6,1.9s1,1.1,1.7,1.6c0.7,0.5,1.6,1,2.7,1.4
				c1,0.4,2.2,0.9,3.5,1.3c2.5,0.8,4.6,1.7,6.6,2.6c1.9,1,3.5,2.1,4.9,3.3s2.3,2.6,3,4.1c0.7,1.5,1,3.3,1,5.2c0,2.1-0.4,3.9-1.2,5.5
				c-0.8,1.6-2,3-3.5,4.1c-1.5,1.1-3.3,2-5.4,2.5s-4.4,0.9-7,0.9c-2.4,0-4.7-0.3-7-0.9c-2.3-0.6-4.4-1.5-6.2-2.8
				c-1.9-1.3-3.3-2.9-4.5-4.9c-1.1-2-1.7-4.3-1.7-7.1h11.2c0,1.4,0.2,2.5,0.5,3.4c0.4,0.9,0.9,1.7,1.6,2.2c0.7,0.6,1.6,1,2.6,1.2
				c1,0.2,2.2,0.4,3.5,0.4c1.4,0,2.6-0.2,3.4-0.6c0.9-0.4,1.5-1,1.9-1.7C394.1,391.3,394.3,390.5,394.3,389.7z"/>
			<path class="st0" d="M420.7,355.8V402h-11.1v-46.2H420.7z M441.4,355.8v8.6h-24.7v-8.6H441.4z M438.2,374.1v8.3h-21.5v-8.3H438.2
				z M441.3,393.4v8.6h-24.6v-8.6H441.3z"/>
			<path class="st0" d="M482.9,355.8V402h-11.1l-16.3-28.8V402h-11.1v-46.2h11.1l16.3,28.8v-28.8H482.9z"/>
			<path class="st0" d="M500.1,355.8V402H489v-46.2H500.1z"/>
			<path class="st0" d="M544.1,377.3v19c-0.8,0.9-2,1.8-3.6,2.8c-1.6,1-3.7,1.8-6.1,2.5c-2.5,0.7-5.3,1-8.7,1
				c-3.1,0-5.9-0.5-8.3-1.5c-2.5-1-4.6-2.4-6.4-4.3c-1.8-1.9-3.2-4.3-4.1-7c-1-2.8-1.4-6-1.4-9.6v-2.6c0-3.6,0.5-6.8,1.5-9.6
				c1-2.8,2.3-5.1,4.1-7.1c1.8-1.9,3.9-3.4,6.3-4.4c2.4-1,5-1.5,7.9-1.5c4.3,0,7.7,0.7,10.4,2c2.7,1.3,4.7,3.2,6.1,5.6
				c1.4,2.4,2.2,5.1,2.5,8.2h-10.7c-0.2-1.5-0.6-2.8-1.2-3.9c-0.6-1.1-1.4-1.9-2.5-2.4s-2.5-0.8-4.2-0.8c-1.3,0-2.5,0.3-3.6,0.9
				c-1.1,0.6-2,1.4-2.8,2.6s-1.3,2.6-1.8,4.3c-0.4,1.7-0.6,3.8-0.6,6.1v2.6c0,2.3,0.2,4.3,0.6,6.1c0.4,1.7,1,3.2,1.8,4.3
				c0.8,1.2,1.8,2,3,2.6c1.2,0.6,2.7,0.9,4.4,0.9c1.2,0,2.2-0.1,3-0.3c0.8-0.2,1.5-0.5,2.1-0.8c0.6-0.3,1-0.6,1.3-0.9v-7.2h-7.7
				v-7.6H544.1z"/>
			<path class="st0" d="M568.6,365.5L557.3,402h-12l17-46.2h7.6L568.6,365.5z M577.5,384.8v8.6h-23.7v-8.6H577.5z M577.9,402
				l-11.3-36.5l-1.5-9.7h7.7l17.1,46.2H577.9z"/>
			<path class="st0" d="M602.8,355.8V402h-11.1v-46.2H602.8z M622.2,393.4v8.6h-23.4v-8.6H622.2z"/>
			<path class="st0" d="M636.4,355.8V402h-11.1v-46.2H636.4z M655.8,393.4v8.6h-23.4v-8.6H655.8z"/>
			<path class="st0" d="M670.7,355.8V402h-11.1v-46.2H670.7z"/>
			<path class="st0" d="M696.5,365.5L685.2,402h-12l17-46.2h7.6L696.5,365.5z M705.4,384.8v8.6h-23.7v-8.6H705.4z M705.8,402
				l-11.3-36.5l-1.5-9.7h7.7l17.1,46.2H705.8z"/>
			<path class="st0" d="M359.4,416.8h18.2c3.6,0,6.6,0.5,9.3,1.6c2.6,1.1,4.6,2.6,6.1,4.7c1.4,2.1,2.1,4.6,2.1,7.7
				c0,2.6-0.4,4.9-1.2,6.6s-2,3.2-3.4,4.4c-1.5,1.2-3.2,2.1-5.1,2.8l-3.6,2.1h-15.3l-0.1-8.6h11.3c1.4,0,2.6-0.3,3.5-0.8
				c0.9-0.5,1.6-1.2,2.1-2.2c0.5-0.9,0.7-2.1,0.7-3.4c0-1.3-0.2-2.5-0.7-3.4c-0.5-1-1.2-1.7-2.1-2.2c-0.9-0.5-2.1-0.8-3.5-0.8h-7
				V463h-11.1V416.8z M384.7,463l-10.2-20.4l11.8-0.1l10.3,20v0.5H384.7z"/>
			<path class="st0" d="M412,416.8V463h-11.1v-46.2H412z"/>
			<path class="st0" d="M429.3,416.8V463h-11.1v-46.2H429.3z M449.1,416.8v8.6h-22.9v-8.6H449.1z M447.3,436v8.6h-21.1V436H447.3z"
				/>
			<path class="st0" d="M491.2,439v1.9c0,3.5-0.5,6.7-1.5,9.5c-1,2.8-2.4,5.2-4.2,7.2c-1.8,2-3.9,3.5-6.4,4.5
				c-2.5,1-5.2,1.6-8.1,1.6c-3,0-5.7-0.5-8.2-1.6c-2.5-1-4.6-2.6-6.4-4.5c-1.8-2-3.2-4.4-4.2-7.2c-1-2.8-1.5-6-1.5-9.5V439
				c0-3.5,0.5-6.7,1.5-9.5c1-2.8,2.4-5.2,4.2-7.2c1.8-2,3.9-3.5,6.4-4.5c2.5-1,5.2-1.6,8.2-1.6c3,0,5.7,0.5,8.1,1.6
				c2.5,1,4.6,2.6,6.4,4.5c1.8,2,3.2,4.4,4.2,7.2C490.7,432.3,491.2,435.4,491.2,439z M479.9,440.8v-1.9c0-2.3-0.2-4.3-0.6-6
				c-0.4-1.7-1-3.2-1.7-4.4c-0.8-1.2-1.7-2.1-2.8-2.7c-1.1-0.6-2.4-0.9-3.8-0.9c-1.5,0-2.8,0.3-3.9,0.9c-1.1,0.6-2,1.5-2.8,2.7
				c-0.7,1.2-1.3,2.7-1.7,4.4c-0.4,1.7-0.6,3.8-0.6,6v1.9c0,2.3,0.2,4.3,0.6,6c0.4,1.7,0.9,3.2,1.7,4.4c0.8,1.2,1.7,2.1,2.8,2.7
				c1.1,0.6,2.4,0.9,3.9,0.9c1.4,0,2.7-0.3,3.8-0.9c1.1-0.6,2-1.5,2.8-2.7s1.3-2.7,1.7-4.4C479.7,445.1,479.9,443.1,479.9,440.8z"/>
			<path class="st0" d="M495.4,416.8h18.2c3.6,0,6.6,0.5,9.3,1.6c2.6,1.1,4.6,2.6,6.1,4.7c1.4,2.1,2.1,4.6,2.1,7.7
				c0,2.6-0.4,4.9-1.2,6.6s-2,3.2-3.4,4.4c-1.5,1.2-3.2,2.1-5.1,2.8l-3.6,2.1h-15.3l-0.1-8.6h11.3c1.4,0,2.6-0.3,3.5-0.8
				c0.9-0.5,1.6-1.2,2.1-2.2c0.5-0.9,0.7-2.1,0.7-3.4c0-1.3-0.2-2.5-0.7-3.4c-0.5-1-1.2-1.7-2.1-2.2c-0.9-0.5-2.1-0.8-3.5-0.8h-7
				V463h-11.1V416.8z M520.7,463l-10.2-20.4l11.8-0.1l10.3,20v0.5H520.7z"/>
			<path class="st0" d="M536.2,416.8h9.4l1.7,35.4V463h-11.1V416.8z M541.7,416.8h9.1l10.3,32.2l10.3-32.2h9.1L564.7,463h-7.4
				L541.7,416.8z M576.6,416.8h9.4V463h-11.2v-10.8L576.6,416.8z"/>
			<path class="st0" d="M603.3,416.8V463h-11.1v-46.2H603.3z"/>
			<path class="st0" d="M633.3,450.7c0-0.7-0.1-1.4-0.3-2c-0.2-0.6-0.6-1.1-1.2-1.6s-1.4-1-2.5-1.5s-2.5-1.1-4.2-1.6
				c-2-0.7-4-1.4-5.9-2.3c-1.9-0.9-3.6-1.9-5-3c-1.5-1.2-2.7-2.5-3.5-4.1c-0.9-1.6-1.3-3.4-1.3-5.4c0-2,0.4-3.8,1.3-5.4
				s2.1-3,3.7-4.1c1.6-1.1,3.5-2,5.6-2.6c2.2-0.6,4.5-0.9,7.1-0.9c3.4,0,6.4,0.6,9,1.8c2.6,1.2,4.6,2.8,6.1,5
				c1.5,2.1,2.2,4.7,2.2,7.6h-11.1c0-1.2-0.2-2.2-0.7-3.1c-0.5-0.9-1.2-1.6-2.1-2.1c-1-0.5-2.1-0.8-3.6-0.8c-1.4,0-2.6,0.2-3.5,0.6
				c-1,0.4-1.7,1-2.2,1.7c-0.5,0.7-0.7,1.5-0.7,2.3c0,0.7,0.2,1.3,0.6,1.9s1,1.1,1.7,1.6c0.7,0.5,1.6,1,2.7,1.4
				c1,0.4,2.2,0.9,3.5,1.3c2.5,0.8,4.6,1.7,6.6,2.6c1.9,1,3.5,2.1,4.9,3.3s2.3,2.6,3,4.1c0.7,1.5,1,3.3,1,5.2c0,2.1-0.4,3.9-1.2,5.5
				c-0.8,1.6-2,3-3.5,4.1c-1.5,1.1-3.3,2-5.4,2.5c-2.1,0.6-4.4,0.9-7,0.9c-2.4,0-4.7-0.3-7-0.9c-2.3-0.6-4.4-1.5-6.2-2.8
				c-1.9-1.3-3.3-2.9-4.5-4.9c-1.1-2-1.7-4.3-1.7-7.1h11.2c0,1.4,0.2,2.5,0.5,3.4c0.4,0.9,0.9,1.7,1.6,2.2c0.7,0.6,1.6,1,2.6,1.2
				c1,0.2,2.2,0.4,3.5,0.4c1.4,0,2.6-0.2,3.4-0.6c0.9-0.4,1.5-1,1.9-1.7C633.1,452.3,633.3,451.5,633.3,450.7z"/>
			<path class="st0" d="M684.9,416.8v8.6h-38.6v-8.6H684.9z M671,416.8V463h-11.1v-46.2H671z"/>
			<path class="st0" d="M707.5,426.5L696.3,463h-12l17-46.2h7.6L707.5,426.5z M716.4,445.8v8.6h-23.7v-8.6H716.4z M716.9,463
				l-11.3-36.5l-1.5-9.7h7.7l17.1,46.2H716.9z"/>
		</g>
	</g>
	<path class="st0" d="M527.3,602.7c-12,0-23.8,0.3-35.5,0.9c0.4,0.2,0.7,0.3,1.1,0.4c0.5,0.2,0.9,0.4,1.3,0.5
		c0.4,0.2,0.9,0.4,1.3,0.6c0.3,0.1,0.7,0.3,1,0.4c2,0.9,3.9,1.7,5.7,2.6c0.3,0.1,0.5,0.2,0.8,0.4c0.1,0.1,0.3,0.1,0.4,0.2
		c0.3,0.1,0.5,0.3,0.8,0.4c0.1,0.1,0.2,0.1,0.4,0.2c1.2,0.6,2.2,1.2,3.3,1.8c0.1,0.1,0.2,0.1,0.3,0.2c0.2,0.1,0.4,0.2,0.5,0.3
		c0,0,0,0,0.1,0c0.2,0.1,0.5,0.3,0.7,0.4c0.3,0.2,0.5,0.3,0.8,0.5c0.2,0.1,0.3,0.2,0.5,0.3c5.6-0.1,11.1-0.2,16.6-0.2
		c1.7,0,3.5,0,5.2,0c1.4,0,2.9,0,4.3,0c1.2,0,2.4,0,3.7,0.1c1,0,2,0,3.1,0.1c0.9,0,1.9,0,2.8,0.1c0.1,0,0.2,0,0.2,0
		c0.9,0,1.8,0,2.7,0.1c1.5,0,2.9,0.1,4.4,0.1c1.6,0,3.2,0.1,4.8,0.2c1.3,0.1,2.7,0.1,4,0.2c1,0.1,2,0.1,3.1,0.2c0.1,0,0.2,0,0.3,0
		c0.1,0,0.1,0,0.2,0c0.9,0,1.8,0.1,2.7,0.1c1.4,0.1,2.8,0.1,4.2,0.2c0.6,0,1.1,0.1,1.7,0.1c0.2,0,0.5,0,0.7,0
		c2.7,0.2,5.4,0.3,8.1,0.5c4.5,0.3,9.1,0.6,13.6,1h0c1.2-0.5,2.4-0.9,3.5-1.4c0,0,0,0,0.1,0c0.4-0.2,0.8-0.3,1.2-0.5
		c0.4-0.1,0.8-0.3,1.2-0.4c2-0.8,4.1-1.5,6-2.2c0.1,0,0.2-0.1,0.2-0.1c0.8-0.3,1.5-0.5,2.2-0.8c0.7-0.2,1.4-0.5,2.1-0.7
		c0.6-0.2,1.2-0.4,1.8-0.6c0.8-0.3,1.7-0.5,2.5-0.8c0.7-0.2,1.5-0.5,2.2-0.7C589.1,604.7,558.9,602.7,527.3,602.7z M527.3,602.7
		c-12,0-23.8,0.3-35.5,0.9c0.4,0.2,0.7,0.3,1.1,0.4c0.5,0.2,0.9,0.4,1.3,0.5c0.4,0.2,0.9,0.4,1.3,0.6c0.3,0.1,0.7,0.3,1,0.4
		c2,0.9,3.9,1.7,5.7,2.6c0.3,0.1,0.5,0.2,0.8,0.4c0.1,0.1,0.3,0.1,0.4,0.2c0.1,0.1,0.3,0.1,0.4,0.2c0.1,0.1,0.3,0.1,0.4,0.2
		c0.1,0.1,0.2,0.1,0.4,0.2c1.2,0.6,2.2,1.2,3.3,1.8c0.1,0.1,0.2,0.1,0.3,0.2c0.2,0.1,0.4,0.2,0.5,0.3c0,0,0,0,0.1,0
		c0.2,0.1,0.5,0.3,0.7,0.4c0.3,0.2,0.5,0.3,0.8,0.5c0.2,0.1,0.3,0.2,0.5,0.3c5.6-0.1,11.1-0.2,16.6-0.2c1.7,0,3.5,0,5.2,0
		c1.4,0,2.9,0,4.3,0c1.2,0,2.4,0,3.7,0.1c1,0,2,0,3.1,0.1c0.9,0,1.9,0,2.8,0.1c0.1,0,0.2,0,0.2,0c0.9,0,1.8,0,2.7,0.1
		c1.5,0,2.9,0.1,4.4,0.1c1.6,0,3.2,0.1,4.8,0.2c1.3,0.1,2.7,0.1,4,0.2c1,0.1,2,0.1,3.1,0.2c0.1,0,0.2,0,0.3,0c0.1,0,0.1,0,0.2,0
		c0.9,0,1.8,0.1,2.7,0.1c1.4,0.1,2.8,0.1,4.2,0.2c0.6,0,1.1,0.1,1.7,0.1c0.2,0,0.5,0,0.7,0c2.7,0.2,5.4,0.3,8.1,0.5
		c4.5,0.3,9.1,0.6,13.6,1h0c1.2-0.5,2.4-0.9,3.5-1.4c0,0,0,0,0.1,0c0.4-0.2,0.8-0.3,1.2-0.5c0.4-0.1,0.8-0.3,1.2-0.4
		c2-0.8,4.1-1.5,6-2.2c0.1,0,0.2-0.1,0.2-0.1c0.8-0.3,1.5-0.5,2.2-0.8c0.7-0.2,1.4-0.5,2.1-0.7c0.6-0.2,1.2-0.4,1.8-0.6
		c0.8-0.3,1.7-0.5,2.5-0.8c0.7-0.2,1.5-0.5,2.2-0.7C589.1,604.7,558.9,602.7,527.3,602.7z M527.3,602.7c-12,0-23.8,0.3-35.5,0.9
		c0.4,0.2,0.7,0.3,1.1,0.4c0.5,0.2,0.9,0.4,1.3,0.5c0.4,0.2,0.9,0.4,1.3,0.6c0.3,0.1,0.7,0.3,1,0.4c2,0.9,3.9,1.7,5.7,2.6
		c0.3,0.1,0.5,0.2,0.8,0.4c0.1,0.1,0.3,0.1,0.4,0.2c0.1,0.1,0.3,0.1,0.4,0.2c0.1,0.1,0.3,0.1,0.4,0.2c0.1,0.1,0.2,0.1,0.4,0.2
		c1.2,0.6,2.2,1.2,3.3,1.8c0.1,0.1,0.2,0.1,0.3,0.2c0.2,0.1,0.4,0.2,0.5,0.3c0,0,0,0,0.1,0c0.2,0.1,0.5,0.3,0.7,0.4
		c0.3,0.2,0.5,0.3,0.8,0.5c0.2,0.1,0.3,0.2,0.5,0.3c5.6-0.1,11.1-0.2,16.6-0.2c1.7,0,3.5,0,5.2,0c1.4,0,2.9,0,4.3,0
		c1.2,0,2.4,0,3.7,0.1c1,0,2.1,0,3.1,0.1c0.9,0,1.9,0,2.8,0.1c0.1,0,0.2,0,0.2,0c0.9,0,1.8,0,2.7,0.1c1.5,0,2.9,0.1,4.4,0.1
		c1.6,0,3.2,0.1,4.8,0.2c1.3,0.1,2.7,0.1,4,0.2c1,0.1,2,0.1,3.1,0.2c0.1,0,0.2,0,0.3,0c0.1,0,0.1,0,0.2,0c0.9,0,1.8,0.1,2.7,0.1
		c1.4,0.1,2.8,0.1,4.2,0.2c0.6,0,1.1,0.1,1.7,0.1c0.2,0,0.5,0,0.7,0c2.7,0.2,5.4,0.3,8.1,0.5c4.5,0.3,9.1,0.6,13.6,1h0
		c1.2-0.5,2.4-0.9,3.5-1.4c0,0,0,0,0.1,0c0.4-0.2,0.8-0.3,1.2-0.5c0.4-0.1,0.8-0.3,1.2-0.4c2-0.8,4.1-1.5,6-2.2
		c0.1,0,0.2-0.1,0.2-0.1c0.7-0.3,1.5-0.5,2.2-0.8c0.7-0.2,1.4-0.5,2.1-0.7c0.6-0.2,1.2-0.4,1.8-0.6c0.8-0.3,1.7-0.5,2.5-0.8
		c0.7-0.2,1.5-0.5,2.2-0.7C589.1,604.7,558.9,602.7,527.3,602.7z M801.3,536.5c0-0.6,0-1.2,0-1.9c0-0.9,0-1.9-0.1-2.8
		c0-0.2,0-0.3,0-0.5c0-1.4-0.1-2.7-0.2-4.1c-0.1-1.2-0.1-2.3-0.2-3.5c0-0.6-0.1-1.2-0.1-1.8c-0.1-1.1-0.1-2.1-0.2-3.2c0,0,0,0,0,0
		c-0.1-1.4-0.2-2.8-0.4-4.2c-0.1-1.4-0.3-2.8-0.4-4.2c-0.2-1.4-0.3-2.8-0.5-4.2c0,0,0,0,0,0c-11-3-22.6-5.9-34.7-8.6
		c-114.2-25.4-205-16.3-230.5-13.3c-20.4,2.4-111.4,14.1-218.5,64.8c-12.6,6-24.4,12-35.5,18c0.1,0.9,0.2,1.8,0.3,2.7
		c0.3,2.7,0.6,5.3,1,7.9v0c0.1,0.7,0.2,1.4,0.3,2.1c0,0.4,0.1,0.7,0.2,1.1c0.1,0.7,0.2,1.3,0.3,2c0.5,2.9,1,5.7,1.6,8.6
		c0.2,1,0.4,1.9,0.6,2.9c0,0.2,0.1,0.3,0.1,0.5c0.2,0.7,0.3,1.5,0.5,2.2c0.1,0.5,0.2,1,0.3,1.5c0.5,2.3,1.1,4.5,1.7,6.8
		c0.1,0.3,0.1,0.6,0.2,0.9c0.2,0.8,0.5,1.7,0.7,2.6c0.2,0.6,0.4,1.3,0.5,1.9c0,0,0,0,0,0c0.3,1.1,0.6,2.1,0.9,3.2
		c0.7,2.4,1.4,4.7,2.2,7.1c0.2,0.5,0.4,1.1,0.5,1.6c0.2,0.8,0.5,1.6,0.8,2.4c0.2,0.7,0.5,1.4,0.8,2.2v0c0.4,1.2,0.9,2.4,1.3,3.6
		c0.7,1.9,1.4,3.7,2.1,5.6c0.2,0.6,0.5,1.2,0.7,1.8c0.4,1,0.9,2.1,1.3,3.1c0.3,0.8,0.7,1.6,1,2.3c0,0.1,0.1,0.1,0.1,0.2
		c0.3,0.7,0.7,1.5,1,2.2c0,0,0,0.1,0,0.1c0.3,0.8,0.7,1.5,1,2.3c2.4-0.7,4.8-1.5,7.2-2.2c0.2-0.1,0.4-0.1,0.6-0.2h0
		c4.5-1.4,9.1-2.7,13.7-4c1.2-0.3,2.3-0.7,3.5-1c2.2-0.6,4.5-1.2,6.8-1.8c1.3-0.4,2.6-0.7,3.9-1c2.4-0.6,4.8-1.3,7.3-1.9
		c1.7-0.4,3.3-0.8,5-1.2c2-0.5,4.1-1,6.1-1.5c1.2-0.3,2.5-0.6,3.8-0.9c1.3-0.3,2.5-0.6,3.8-0.9c2.6-0.6,5.3-1.2,8-1.8
		c1.8-0.4,3.7-0.8,5.5-1.2c0.1,0,0.3-0.1,0.4-0.1c1.8-0.4,3.7-0.8,5.6-1.1c1.2-0.2,2.3-0.5,3.5-0.7c1-0.2,2.1-0.4,3.1-0.6
		c1-0.2,2.1-0.4,3.2-0.6c1.9-0.4,3.9-0.7,5.8-1.1c0.3,0,0.6-0.1,1-0.2c1.9-0.4,3.9-0.7,5.8-1c0.1,0,0.1,0,0.2,0
		c2.2-0.4,4.3-0.7,6.5-1.1c1.1-0.2,2.3-0.4,3.4-0.6c1.8-0.3,3.7-0.6,5.5-0.9c0.4,0,0.7-0.1,1-0.2c1.9-0.3,3.8-0.6,5.8-0.8
		c1.5-0.2,3-0.4,4.6-0.7c1.8-0.2,3.7-0.5,5.5-0.7c1.6-0.2,3.1-0.4,4.7-0.6c1.2-0.2,2.5-0.3,3.7-0.4c1.1-0.1,2.3-0.3,3.4-0.4
		c1.6-0.2,3.1-0.3,4.6-0.5c0.4,0,0.8-0.1,1.2-0.1c0.7-0.1,1.4-0.1,2.1-0.2c0.1,0,0.2,0,0.3,0c0.2,0,0.4,0,0.6-0.1
		c1.5-0.2,3.1-0.3,4.6-0.4c2-0.2,3.9-0.4,5.9-0.5c0.1,0,0.2,0,0.3,0c0.2,0,0.4,0,0.6,0c1.4-0.1,2.7-0.2,4.1-0.3c0.1,0,0.2,0,0.3,0
		c1-0.1,2-0.2,3-0.2c1.6-0.1,3.2-0.2,4.8-0.3c3.2-0.2,6.4-0.4,9.6-0.6c1,0,2-0.1,2.9-0.1c0.1,0,0.2,0,0.3,0c1,0,1.9-0.1,2.9-0.1
		c0.6,0,1.2,0,1.7-0.1c1.4-0.1,2.8-0.1,4.2-0.2c0.3,0,0.6,0,0.9,0c1.6,0,3.1-0.1,4.7-0.1c0.4,0,0.8,0,1.2,0
		c5.6-0.1,11.1-0.2,16.6-0.2c1.7,0,3.5,0,5.2,0c1.4,0,2.9,0,4.3,0c1.2,0,2.4,0,3.7,0.1c1,0,2,0,3.1,0.1c0.9,0,1.9,0,2.8,0.1
		c0.1,0,0.2,0,0.2,0c0.9,0,1.8,0,2.7,0.1c1.5,0,2.9,0.1,4.4,0.1c1.6,0,3.2,0.1,4.8,0.2c1.3,0.1,2.7,0.1,4,0.2c1,0.1,2,0.1,3.1,0.2
		c0.1,0,0.2,0,0.3,0c0.1,0,0.1,0,0.2,0c0.9,0,1.8,0.1,2.7,0.1c1.4,0.1,2.8,0.1,4.2,0.2c0.6,0,1.1,0.1,1.7,0.1c0.2,0,0.5,0,0.7,0
		c2.7,0.2,5.4,0.3,8.1,0.5c4.5,0.3,9.1,0.6,13.6,1h0c0.8,0.1,1.6,0.1,2.4,0.2c2.2,0.2,4.5,0.4,6.8,0.6c2.9,0.2,5.8,0.5,8.7,0.8
		c0.3,0,0.6,0,0.9,0.1c2.9,0.3,5.8,0.6,8.8,0.8c0.2,0,0.5,0.1,0.7,0.1c1.4,0.1,2.8,0.3,4.3,0.4c1.4,0.1,2.8,0.3,4.3,0.4
		c3.9,0.4,7.8,0.8,11.7,1.2c2,0.2,4,0.4,6.1,0.7c1.9,0.2,3.8,0.4,5.7,0.6c7.7,0.8,15.5,1.7,23.4,2.6c2.9,0.3,5.8,0.7,8.8,1
		c1.8,0.2,3.7,0.4,5.5,0.6c31.8,3.6,61,7.8,87.4,12.2c0.3-0.8,0.6-1.6,1-2.4c0.3-0.7,0.5-1.3,0.8-2c0.3-0.8,0.6-1.5,0.9-2.3
		c0.3-0.7,0.5-1.4,0.8-2.1c0.3-0.8,0.6-1.7,0.9-2.6c0.4-1.3,0.9-2.5,1.3-3.8c0.2-0.6,0.4-1.1,0.6-1.7c0.4-1.2,0.8-2.4,1.2-3.7
		c0.3-1,0.6-2,0.9-3c0.3-0.9,0.5-1.8,0.8-2.7c0.1-0.2,0.1-0.4,0.2-0.6c0.2-0.8,0.4-1.6,0.7-2.4c0.1-0.2,0.1-0.3,0.1-0.5
		c0.2-0.9,0.5-1.9,0.7-2.8c0.2-0.9,0.4-1.7,0.7-2.6c0.6-2.5,1.2-5,1.7-7.5c0.1-0.4,0.2-0.8,0.3-1.2c0.1-0.6,0.2-1.1,0.3-1.7
		c0.1-0.5,0.2-0.9,0.3-1.4c0.2-0.9,0.4-1.9,0.5-2.8c0.2-0.8,0.3-1.7,0.5-2.5c0.2-1,0.3-1.9,0.5-2.9c0.1-0.6,0.2-1.2,0.3-1.7
		c0.1-0.8,0.2-1.6,0.3-2.3c0.1-0.6,0.2-1.2,0.3-1.9c0.1-0.7,0.2-1.4,0.3-2.1c0.1-0.9,0.2-1.7,0.3-2.6c0.1-0.9,0.2-1.7,0.3-2.6
		c0-0.3,0.1-0.6,0.1-0.9c0-0.2,0-0.5,0.1-0.7c0.1-0.9,0.2-1.7,0.3-2.6c0.2-2.1,0.4-4.2,0.5-6.3c0.1-0.8,0.1-1.6,0.2-2.3
		c0-0.8,0.1-1.6,0.1-2.3c0-0.2,0-0.3,0-0.5c0-0.3,0-0.6,0.1-0.9c0.1-1.1,0.1-2.2,0.1-3.2c0.1-3.2,0.2-6.5,0.2-9.8
		C801.3,538.8,801.3,537.6,801.3,536.5z M788.1,580.8c-0.6,3.5-1.2,7-1.9,10.5c-0.3,1.3-0.5,2.5-0.8,3.8
		c-2.4,10.8-5.5,21.3-9.3,31.7c-26.5-4.2-53.3-7.9-79.8-10.9l-7.2-0.8c-24-2.7-46.6-5.3-68.7-7.4c-31.2-2.9-61.3-4.9-92.9-4.9
		c-12,0-23.8,0.3-35.5,0.9h0c-20.3,1-40.3,2.9-60.6,5.7c-41.6,5.8-83.1,14.8-123.5,26.9c-1.7-4-3.2-8.1-4.7-12.2
		c-0.5-1.4-1-2.8-1.4-4.2v0c-1.8-5.2-3.3-10.6-4.7-15.9c-0.5-1.8-0.9-3.5-1.3-5.3c-2-8.2-3.5-16.5-4.6-24.9
		c-0.1-0.4-0.1-0.8-0.2-1.2c9.6-5.1,19.3-9.9,29-14.5c97.8-46.3,183.2-60.1,215.4-63.9c22.5-2.7,46.6-4,71.6-4
		c52.1,0,104.4,5.8,155.5,17.1c9.1,2,18.4,4.3,27.7,6.8c0.9,8.6,1.3,17.3,1.3,26c0,4.2-0.1,8.4-0.3,12.5c-0.2,4.8-0.6,9.7-1.1,14.5
		C789.4,571.6,788.8,576.2,788.1,580.8z M527.3,602.7c-12,0-23.8,0.3-35.5,0.9c0.4,0.2,0.7,0.3,1.1,0.4c0.5,0.2,0.9,0.4,1.3,0.5
		c0.4,0.2,0.9,0.4,1.3,0.6c0.3,0.1,0.7,0.3,1,0.4c2,0.9,3.9,1.7,5.7,2.6c0.3,0.1,0.5,0.2,0.8,0.4c0.1,0.1,0.3,0.1,0.4,0.2
		c0.1,0.1,0.3,0.1,0.4,0.2c0.1,0.1,0.3,0.1,0.4,0.2c0.1,0.1,0.2,0.1,0.4,0.2c1.2,0.6,2.2,1.2,3.3,1.8c0.1,0.1,0.2,0.1,0.3,0.2
		c0.2,0.1,0.4,0.2,0.5,0.3c0,0,0,0,0.1,0c0.2,0.1,0.5,0.3,0.7,0.4c0.3,0.2,0.5,0.3,0.8,0.5c0.2,0.1,0.3,0.2,0.5,0.3
		c5.6-0.1,11.1-0.2,16.6-0.2c1.7,0,3.5,0,5.2,0c1.4,0,2.9,0,4.3,0c1.2,0,2.4,0,3.7,0.1c1,0,2,0,3.1,0.1c0.9,0,1.9,0,2.8,0.1
		c0.1,0,0.2,0,0.2,0c0.9,0,1.8,0,2.7,0.1c1.5,0,2.9,0.1,4.4,0.1c1.6,0,3.2,0.1,4.8,0.2c1.3,0.1,2.7,0.1,4,0.2c1,0.1,2,0.1,3.1,0.2
		c0.1,0,0.2,0,0.3,0c0.1,0,0.1,0,0.2,0c0.9,0,1.8,0.1,2.7,0.1c1.4,0.1,2.8,0.1,4.2,0.2c0.6,0,1.1,0.1,1.7,0.1c0.2,0,0.5,0,0.7,0
		c2.7,0.2,5.4,0.3,8.1,0.5c4.5,0.3,9.1,0.6,13.6,1h0c1.2-0.5,2.4-0.9,3.5-1.4c0,0,0,0,0.1,0c0.4-0.2,0.8-0.3,1.2-0.5
		c0.4-0.1,0.8-0.3,1.2-0.4c2-0.8,4.1-1.5,6-2.2c0.1,0,0.2-0.1,0.2-0.1c0.8-0.3,1.5-0.5,2.2-0.8c0.7-0.2,1.4-0.5,2.1-0.7
		c0.6-0.2,1.2-0.4,1.8-0.6c0.8-0.3,1.7-0.5,2.5-0.8c0.7-0.2,1.5-0.5,2.2-0.7C589.1,604.7,558.9,602.7,527.3,602.7z M527.3,602.7
		c-12,0-23.8,0.3-35.5,0.9c0.4,0.2,0.7,0.3,1.1,0.4c0.5,0.2,0.9,0.4,1.3,0.5c0.4,0.2,0.9,0.4,1.3,0.6c0.3,0.1,0.7,0.3,1,0.4
		c2,0.9,3.9,1.7,5.7,2.6c0.3,0.1,0.5,0.2,0.8,0.4c0.1,0.1,0.3,0.1,0.4,0.2c0.1,0.1,0.3,0.1,0.4,0.2c0.1,0.1,0.3,0.1,0.4,0.2
		c0.1,0.1,0.2,0.1,0.4,0.2c1.2,0.6,2.2,1.2,3.3,1.8c0.1,0.1,0.2,0.1,0.3,0.2c0.2,0.1,0.4,0.2,0.5,0.3c0,0,0,0,0.1,0
		c0.2,0.1,0.5,0.3,0.7,0.4c0.3,0.2,0.5,0.3,0.8,0.5c0.2,0.1,0.3,0.2,0.5,0.3c5.6-0.1,11.1-0.2,16.6-0.2c1.7,0,3.5,0,5.2,0
		c1.4,0,2.9,0,4.3,0c1.2,0,2.4,0,3.7,0.1c1,0,2,0,3.1,0.1c0.9,0,1.9,0,2.8,0.1c0.1,0,0.2,0,0.2,0c0.9,0,1.8,0,2.7,0.1
		c1.5,0,2.9,0.1,4.4,0.1c1.6,0,3.2,0.1,4.8,0.2c1.3,0.1,2.7,0.1,4,0.2c1,0.1,2,0.1,3.1,0.2c0.1,0,0.2,0,0.3,0c0.1,0,0.1,0,0.2,0
		c0.9,0,1.8,0.1,2.7,0.1c1.4,0.1,2.8,0.1,4.2,0.2c0.6,0,1.1,0.1,1.7,0.1c0.2,0,0.5,0,0.7,0c2.7,0.2,5.4,0.3,8.1,0.5
		c4.5,0.3,9.1,0.6,13.6,1h0c1.2-0.5,2.4-0.9,3.5-1.4c0,0,0,0,0.1,0c0.4-0.2,0.8-0.3,1.2-0.5c0.4-0.1,0.8-0.3,1.2-0.4
		c2-0.8,4.1-1.5,6-2.2c0.1,0,0.2-0.1,0.2-0.1c0.8-0.3,1.5-0.5,2.2-0.8c0.7-0.2,1.4-0.5,2.1-0.7c0.6-0.2,1.2-0.4,1.8-0.6
		c0.8-0.3,1.7-0.5,2.5-0.8c0.7-0.2,1.5-0.5,2.2-0.7C589.1,604.7,558.9,602.7,527.3,602.7z"/>
	<linearGradient id="SVGID_1_" gradientUnits="userSpaceOnUse" x1="620.235" y1="609.2733" x2="785.325" y2="609.2733">
		<stop  offset="2.131116e-07" style="stop-color:#A17FCF"/>
		<stop  offset="1" style="stop-color:#CCB1E7"/>
	</linearGradient>
	<path class="st4" d="M785.3,595.1c-2.4,10.8-5.5,21.3-9.3,31.7c-26.5-4.2-53.3-7.9-79.8-10.9l-7.2-0.8c-24-2.7-46.6-5.3-68.7-7.4
		c10.8-3.1,22.2-5.9,34.2-8.3C704.2,589.6,749.1,590.6,785.3,595.1z"/>
	<path class="st5" d="M491.8,603.6c-20.3,1-40.3,2.9-60.6,5.7c-41.6,5.8-83.1,14.8-123.5,26.9c-1.7-4-3.2-8.1-4.7-12.2
		c14.7-11.1,36.4-24.1,64.8-31.4c38.8-10,70.5-4.3,81.8-1.9C461.1,593.2,477.7,598,491.8,603.6z"/>
	
		<linearGradient id="SVGID_00000097502202353520895820000002969628971268959676_" gradientUnits="userSpaceOnUse" x1="296.845" y1="592.9277" x2="788.0651" y2="592.9277">
		<stop  offset="2.131116e-07" style="stop-color:#A17FCF"/>
		<stop  offset="1" style="stop-color:#CCB1E7"/>
	</linearGradient>
	<path style="fill:url(#SVGID_00000097502202353520895820000002969628971268959676_);" d="M788.1,580.8c-0.6,3.5-1.2,7-1.9,10.5
		c-19.2-2.2-48.3-4.7-83.6-4.7c-87.5,0-98.1,15.2-161.6,11.9c-59.6-3.1-77.3-18-137.6-15.8c-18.2,0.7-48.3,3.2-79.1,21.1
		c-10,5.8-17.5,11.8-22.6,16.2c-1.8-5.2-3.3-10.6-4.7-15.9c9.6-7.1,23.6-16,41.9-23.5c9.1-3.7,28.7-10.9,56.1-13.6
		c52.9-5.2,65.2,13,138,16.1c13.8,0.6,31.9,1.4,55.9-1c30.8-3,38-7.8,70-10.6c26-2.3,46.1-1.5,57.1-0.7
		C733.1,572,757.6,574.7,788.1,580.8z"/>
	<path class="st7" d="M791,552.5c-0.2,4.8-0.6,9.7-1.1,14.5c-17.4-3.8-43.5-8.2-75.4-8.4c-11.6-0.1-27.3,0.4-84.3,7.7
		c-21.5,2.8-50.3,6.7-84.4,12.1c12.6-5,31.2-11.9,54.1-18.5c32.6-9.4,66.4-19.1,109.2-19.1C728.3,540.8,756.8,542.7,791,552.5z"/>
	<path class="st5" d="M592.3,536.9c-1,2.1-2.7,4.9-5,8.1c-8.5,11.2-19.1,16.1-28.3,20.2c-15.8,7-29.4,8.4-33.5,8.8
		c-10,0.9-16.9,0-43.2-4.7c-37.2-6.6-37-7.2-45.9-8.3c0,0-26.6-3.2-55.3,1c-36.5,5.4-66.1,22.4-85.7,36.7c-2-8.2-3.5-16.5-4.6-24.9
		c15.7-9.6,35.2-19.4,58.6-26.8c19.2-6.1,58.4-18.5,105.7-11.1c17.4,2.7,24.2,6.3,57.6,11.6c24.3,3.9,43.3,5.6,63.8-2.4
		C583.4,542.4,588.8,539.3,592.3,536.9z"/>
</g>
</svg>
